<svg width="14" height="16" viewBox="0 0 14 16" fill="none" xmlns="http://www.w3.org/2000/svg">
<path d="M6.83333 1.38667V1.81977L7.26201 1.88155C9.27819 2.17213 10.8333 3.9075 10.8333 6V7.85867C10.8333 9.32464 11.4757 10.7092 12.5953 11.6561C12.7505 11.7897 12.8333 11.9739 12.8333 12.1667C12.8333 12.5339 12.5339 12.8333 12.1667 12.8333H1.16667C0.799475 12.8333 0.5 12.5339 0.5 12.1667C0.5 11.972 0.584316 11.7884 0.732203 11.6613C1.8573 10.7094 2.5 9.32509 2.5 7.85867V6C2.5 3.90744 4.05454 2.17213 6.0713 1.88156L6.5 1.81979V1.38667V0.666667C6.5 0.574468 6.57448 0.5 6.66667 0.5C6.75885 0.5 6.83333 0.574468 6.83333 0.666667V1.38667Z" stroke="#5068A5"/>
<mask id="path-2-inside-1" fill="white">
<path d="M6.66808 16C7.87542 16 8.88542 15.1393 9.11742 14H4.21875C4.45075 15.1393 5.46075 16 6.66808 16Z"/>
</mask>
<path d="M6.66808 16C7.87542 16 8.88542 15.1393 9.11742 14H4.21875C4.45075 15.1393 5.46075 16 6.66808 16Z" fill="#5068A5"/>
<path d="M9.11742 14L30.0218 18.2567L35.2326 -7.33333H9.11742V14ZM4.21875 14V-7.33333H-21.8964L-16.6856 18.2567L4.21875 14ZM6.66808 37.3333C18.2361 37.3333 27.8104 29.1167 30.0218 18.2567L-11.7869 9.74329C-10.0395 1.16192 -2.48527 -5.33333 6.66808 -5.33333V37.3333ZM9.11742 -7.33333H4.21875V35.3333H9.11742V-7.33333ZM-16.6856 18.2567C-14.4742 29.1167 -4.89994 37.3333 6.66808 37.3333V-5.33333C15.8214 -5.33333 23.3757 1.16192 25.1231 9.74329L-16.6856 18.2567Z" fill="#5068A5" mask="url(#path-2-inside-1)"/>
</svg>
