<svg width="17" height="16" viewBox="0 0 17 16" fill="none" xmlns="http://www.w3.org/2000/svg">
<rect x="0.333374" width="16" height="16" rx="4" fill="#0069FF"/>
<g clip-path="url(#clip0)">
<path fill-rule="evenodd" clip-rule="evenodd" d="M3.01658 6.00855C2.70184 5.9754 2.38456 6.04054 2.10834 6.19503C1.83212 6.34951 1.61054 6.58576 1.47403 6.87129C1.33753 7.15682 1.29282 7.47762 1.34603 7.78959C1.39925 8.10157 1.54778 8.3894 1.77122 8.61354C1.99466 8.83767 2.28204 8.98709 2.59385 9.04127C2.90566 9.09546 3.22659 9.05173 3.51255 8.91611C3.7985 8.78049 4.03543 8.55964 4.19076 8.2839C4.3461 8.00816 4.41223 7.69108 4.38005 7.37624C4.34463 7.02628 4.18971 6.6992 3.94137 6.45009C3.69303 6.20098 3.36643 6.04505 3.01658 6.00855ZM2.96694 8.34268C2.79766 8.36539 2.62553 8.33449 2.47472 8.25431C2.32391 8.17414 2.20202 8.04872 2.12617 7.8957C2.05033 7.74267 2.02434 7.56972 2.05186 7.40116C2.07938 7.2326 2.15902 7.0769 2.2796 6.95594C2.40018 6.83498 2.55563 6.75485 2.72411 6.7268C2.89258 6.69875 3.06561 6.7242 3.21887 6.79957C3.37214 6.87494 3.49793 6.99644 3.57858 7.14699C3.65922 7.29755 3.69067 7.46959 3.66849 7.63893C3.64521 7.81706 3.56387 7.98254 3.43704 8.10976C3.31022 8.23698 3.14499 8.31885 2.96694 8.34268ZM5.19939 6.06916C5.14626 6.06928 5.09382 6.08125 5.0459 6.1042C4.99798 6.12714 4.95577 6.16048 4.92236 6.20178C4.88894 6.24309 4.86516 6.29133 4.85273 6.34299C4.8403 6.39464 4.83955 6.44842 4.85052 6.50041C4.88414 6.66882 5.04144 6.7839 5.21281 6.7839H6.20728L4.65966 8.83196C4.64821 8.84708 4.6412 8.86509 4.63942 8.88397C4.63764 8.90285 4.64114 8.92185 4.64955 8.93885C4.65796 8.95585 4.67094 8.97016 4.68703 8.9802C4.70312 8.99023 4.72169 8.99559 4.74066 8.99566H7.16825C7.3395 8.99566 7.49692 8.88062 7.53054 8.71217C7.54151 8.66019 7.54076 8.60642 7.52835 8.55477C7.51593 8.50312 7.49216 8.45489 7.45876 8.41358C7.42536 8.37227 7.38317 8.33892 7.33527 8.31596C7.28736 8.29301 7.23494 8.28102 7.18182 8.28086H5.97013L7.51656 6.23439C7.52812 6.21912 7.5352 6.20094 7.537 6.18187C7.53879 6.16281 7.53525 6.14362 7.52675 6.12646C7.51825 6.1093 7.50514 6.09485 7.48888 6.08473C7.47263 6.07461 7.45388 6.06921 7.43473 6.06916H5.19939ZM14.8999 6.0774C14.8195 6.09651 14.7481 6.14248 14.6974 6.2077C14.6467 6.27293 14.6198 6.3535 14.6211 6.4361V7.62612L12.6928 6.09163C12.6777 6.07963 12.6595 6.07214 12.6403 6.07002C12.6211 6.0679 12.6017 6.07125 12.5843 6.07967C12.5669 6.08809 12.5523 6.10124 12.5421 6.11761C12.5318 6.13399 12.5264 6.15292 12.5265 6.17222V8.62935C12.5252 8.71195 12.5521 8.79253 12.6028 8.85776C12.6535 8.92298 12.7249 8.96895 12.8053 8.98805C12.8575 8.99954 12.9116 8.99916 12.9636 8.98694C13.0157 8.97473 13.0643 8.95099 13.1059 8.91748C13.1475 8.88397 13.1811 8.84154 13.2041 8.79333C13.2272 8.74511 13.2391 8.69234 13.239 8.6389V7.43858L15.1673 8.9731C15.1824 8.98509 15.2006 8.99258 15.2198 8.99469C15.239 8.99681 15.2584 8.99347 15.2758 8.98505C15.2931 8.97663 15.3078 8.96349 15.318 8.94712C15.3282 8.93075 15.3336 8.91183 15.3336 8.89253V6.42644C15.3336 6.37301 15.3217 6.32026 15.2987 6.27206C15.2756 6.22386 15.242 6.18145 15.2004 6.14795C15.1588 6.11445 15.1102 6.09073 15.0582 6.07851C15.0062 6.0663 14.9521 6.06592 14.8999 6.0774ZM9.87919 6.71548C10.6948 6.71548 11.3042 7.1465 11.3042 7.53205C11.3042 7.91759 10.6948 8.34861 9.87919 8.34861C9.06358 8.34861 8.45416 7.91759 8.45416 7.53205C8.45416 7.1465 9.06358 6.71548 9.87919 6.71548ZM9.87919 6.00077C8.69863 6.00077 7.74162 6.68635 7.74162 7.53205C7.74162 8.37774 8.69863 9.06332 9.87919 9.06332C11.0597 9.06332 12.0167 8.37774 12.0167 7.53205C12.0167 6.68635 11.0597 6.00077 9.87919 6.00077Z" fill="white"/>
</g>
<defs>
<clipPath id="clip0">
<rect width="14" height="3.06452" fill="white" transform="translate(1.33337 6)"/>
</clipPath>
</defs>
</svg>
