<svg width="14" height="14" viewBox="0 0 14 14" fill="none" xmlns="http://www.w3.org/2000/svg">
<path d="M11.9498 9.05034C11.1874 8.28794 10.2799 7.72353 9.28977 7.38187C10.3502 6.65149 11.0469 5.42914 11.0469 4.04701C11.0469 1.81556 9.23148 0.00012207 7.00003 0.00012207C4.76858 0.00012207 2.95314 1.81556 2.95314 4.04701C2.95314 5.42919 3.64983 6.65154 4.71031 7.38187C3.72019 7.72353 2.8127 8.28794 2.05027 9.05034C0.72814 10.3725 0 12.1303 0 14.0001H1.09375C1.09375 10.7435 3.74329 8.09385 7.00003 8.09385C10.2568 8.09385 12.9063 10.7434 12.9063 14.0001H14.0001C14.0001 12.1303 13.2719 10.3724 11.9498 9.05034ZM7.00003 7.00009C5.37167 7.00009 4.04689 5.67534 4.04689 4.04696C4.04689 2.41858 5.37167 1.09382 7.00003 1.09382C8.62838 1.09382 9.95316 2.41858 9.95316 4.04696C9.95316 5.67534 8.62838 7.00009 7.00003 7.00009Z" fill="#5068A5"/>
</svg>
