<svg width="9" height="10" fill="none" xmlns="http://www.w3.org/2000/svg"><path d="M.84 6.363v-1.12h.924V.196h2.645C5.53.197 6.394.405 7 .82c.784.534 1.176 1.313 1.176 2.338 0 .889-.29 1.616-.868 2.18a3.189 3.189 0 01-1.21.76c-.465.164-1.042.246-1.73.246H3.07v.943h4.703v1.1H3.07V10H1.764V8.387H.84v-1.1h.923v-.924H.84zm5.975-3.165c0-.679-.237-1.173-.71-1.483-.406-.264-.99-.397-1.75-.397H3.068v3.924h1.087c.524 0 .95-.048 1.279-.143.328-.1.601-.253.82-.458.374-.374.56-.855.56-1.443z" fill="#333"/></svg>