<svg width="87" height="13" fill="none" xmlns="http://www.w3.org/2000/svg"><path d="M5.984 5.892a.572.572 0 01-.168.184.465.465 0 01-.224.048.731.731 0 01-.312-.08 9.28 9.28 0 00-.376-.176 3.15 3.15 0 00-.496-.184 2.313 2.313 0 00-.648-.08c-.39 0-.696.083-.92.248a.775.775 0 00-.328.648.64.64 0 00.168.448c.117.117.27.221.456.312.192.09.408.173.648.248.24.07.483.147.728.232.25.085.496.184.736.296.24.107.453.245.64.416.192.165.344.365.456.6.117.235.176.517.176.848 0 .395-.072.76-.216 1.096-.139.33-.347.619-.624.864-.277.24-.621.43-1.032.568-.405.133-.875.2-1.408.2-.283 0-.56-.027-.832-.08a4.521 4.521 0 01-1.464-.528 3.417 3.417 0 01-.552-.4l.456-.752a.645.645 0 01.208-.208.583.583 0 01.304-.072.62.62 0 01.344.104c.112.07.24.144.384.224.144.08.312.155.504.224.197.07.445.104.744.104.235 0 .435-.027.6-.08.17-.059.31-.133.416-.224a.783.783 0 00.24-.312.935.935 0 00.08-.376.655.655 0 00-.176-.472 1.442 1.442 0 00-.456-.32 3.938 3.938 0 00-.648-.24c-.24-.075-.488-.155-.744-.24a7.993 7.993 0 01-.744-.296 2.723 2.723 0 01-.648-.44A2.055 2.055 0 01.8 7.596C.688 7.34.632 7.031.632 6.668c0-.336.067-.656.2-.96.133-.304.328-.568.584-.792.261-.23.584-.41.968-.544a3.99 3.99 0 011.344-.208c.565 0 1.08.093 1.544.28a3.5 3.5 0 011.16.736l-.448.712zm4.76 6.736c-.715 0-1.265-.2-1.649-.6-.378-.405-.568-.963-.568-1.672V5.772h-.84a.385.385 0 01-.272-.104c-.074-.07-.112-.173-.112-.312v-.784l1.32-.216.416-2.24a.439.439 0 01.152-.248.452.452 0 01.288-.088h1.024v2.584h2.192v1.408h-2.192v4.448c0 .256.062.456.184.6a.66.66 0 00.52.216.976.976 0 00.304-.04 1.63 1.63 0 00.216-.096c.064-.032.12-.061.168-.088a.258.258 0 01.144-.048c.059 0 .107.016.144.048.038.027.078.07.12.128l.592.96a2.99 2.99 0 01-.992.544c-.373.123-.76.184-1.16.184zm7.552-3.632c-.57.027-1.05.077-1.44.152-.389.07-.701.16-.936.272-.234.112-.402.243-.504.392a.851.851 0 00-.152.488c0 .347.102.595.304.744.208.15.478.224.808.224.406 0 .755-.072 1.048-.216.299-.15.59-.373.872-.672V8.996zm-4.528-3.56c.944-.864 2.08-1.296 3.408-1.296.48 0 .91.08 1.288.24.379.155.699.373.96.656a2.7 2.7 0 01.592 1c.139.39.208.816.208 1.28V12.5h-.896a.953.953 0 01-.432-.08c-.101-.059-.181-.173-.24-.344l-.176-.592c-.208.187-.41.352-.608.496a3.74 3.74 0 01-.616.352 3.141 3.141 0 01-.688.216c-.24.053-.506.08-.8.08-.346 0-.666-.045-.96-.136a2.156 2.156 0 01-.76-.424 1.885 1.885 0 01-.496-.696 2.468 2.468 0 01-.176-.968 1.89 1.89 0 01.44-1.208c.16-.187.366-.363.616-.528a4 4 0 01.92-.432 7.844 7.844 0 011.28-.296c.486-.08 1.04-.128 1.664-.144v-.48c0-.55-.117-.955-.352-1.216-.234-.267-.573-.4-1.016-.4-.32 0-.586.037-.8.112-.208.075-.392.16-.552.256l-.44.248a.841.841 0 01-.432.112.585.585 0 01-.352-.104.954.954 0 01-.232-.256l-.352-.632zm10.944 7.192c-.715 0-1.264-.2-1.648-.6-.379-.405-.568-.963-.568-1.672V5.772h-.84a.385.385 0 01-.272-.104c-.075-.07-.112-.173-.112-.312v-.784l1.32-.216.416-2.24a.439.439 0 01.152-.248.452.452 0 01.288-.088h1.024v2.584h2.192v1.408h-2.192v4.448c0 .256.061.456.184.6a.66.66 0 00.52.216.975.975 0 00.304-.04c.085-.032.157-.064.216-.096.064-.032.12-.061.168-.088a.258.258 0 01.144-.048c.059 0 .107.016.144.048.037.027.077.07.12.128l.592.96a3 3 0 01-.992.544c-.373.123-.76.184-1.16.184zM37.21 12.5V4.292h1.208c.256 0 .424.12.504.36l.128.608a4.96 4.96 0 01.448-.44 2.688 2.688 0 011.76-.656c.518 0 .942.141 1.272.424.336.277.587.648.752 1.112a2.597 2.597 0 011.112-1.176c.23-.123.472-.213.728-.272.262-.059.523-.088.784-.088.454 0 .856.07 1.208.208.352.139.648.341.888.608.24.267.422.592.544.976.128.384.192.824.192 1.32V12.5h-1.976V7.276c0-.523-.114-.915-.344-1.176-.229-.267-.565-.4-1.008-.4a1.381 1.381 0 00-1.024.408c-.128.128-.229.29-.304.488a1.913 1.913 0 00-.112.68V12.5h-1.984V7.276c0-.55-.112-.95-.336-1.2-.218-.25-.541-.376-.968-.376-.288 0-.557.072-.808.216-.245.139-.474.33-.688.576V12.5H37.21zm17.743-3.504c-.571.027-1.051.077-1.44.152-.39.07-.702.16-.936.272-.235.112-.403.243-.504.392a.852.852 0 00-.152.488c0 .347.101.595.304.744.208.15.477.224.808.224.405 0 .754-.072 1.048-.216.298-.15.589-.373.872-.672V8.996zm-4.528-3.56c.944-.864 2.08-1.296 3.408-1.296.48 0 .909.08 1.288.24.378.155.698.373.96.656.261.277.458.61.592 1 .138.39.208.816.208 1.28V12.5h-.896c-.187 0-.331-.027-.432-.08-.102-.059-.182-.173-.24-.344l-.176-.592a7.78 7.78 0 01-.608.496 3.732 3.732 0 01-.616.352 3.138 3.138 0 01-.688.216c-.24.053-.507.08-.8.08-.347 0-.667-.045-.96-.136a2.158 2.158 0 01-.76-.424 1.887 1.887 0 01-.496-.696 2.47 2.47 0 01-.176-.968 1.892 1.892 0 01.44-1.208c.16-.187.365-.363.616-.528.25-.165.557-.31.92-.432a7.847 7.847 0 011.28-.296c.485-.08 1.04-.128 1.664-.144v-.48c0-.55-.118-.955-.352-1.216-.235-.267-.574-.4-1.016-.4-.32 0-.587.037-.8.112-.208.075-.392.16-.552.256l-.44.248a.841.841 0 01-.432.112.585.585 0 01-.352-.104.956.956 0 01-.232-.256l-.352-.632zm10.18.28c.257-.49.56-.875.913-1.152a1.933 1.933 0 011.248-.424c.378 0 .682.083.912.248l-.128 1.48a.391.391 0 01-.12.208.318.318 0 01-.2.056c-.08 0-.2-.013-.36-.04a2.68 2.68 0 00-.456-.04c-.219 0-.414.032-.584.096a1.48 1.48 0 00-.464.28 1.94 1.94 0 00-.36.432c-.102.17-.198.365-.288.584V12.5h-1.976V4.292h1.16c.202 0 .344.037.424.112.08.07.133.197.16.384l.12.928zM66.687.612V7.42h.368a.814.814 0 00.312-.048.68.68 0 00.24-.216l2.04-2.52a.963.963 0 01.28-.256.84.84 0 01.408-.088h1.808L69.59 7.34c-.181.24-.378.424-.592.552.112.08.211.173.296.28.091.107.176.221.256.344l2.736 3.984h-1.784c-.154 0-.288-.024-.4-.072a.643.643 0 01-.28-.28l-2.096-3.112a.59.59 0 00-.232-.24.889.889 0 00-.36-.056h-.448v3.76H64.71V.612h1.976zm11.437 6.84c0-.256-.037-.496-.112-.72a1.65 1.65 0 00-.32-.6 1.462 1.462 0 00-.552-.4 1.81 1.81 0 00-.768-.152c-.57 0-1.021.163-1.352.488-.325.325-.533.787-.624 1.384h3.728zm-3.768 1.192c.032.421.107.787.224 1.096a2.3 2.3 0 00.464.76c.192.197.419.347.68.448.267.096.56.144.88.144.32 0 .595-.037.824-.112.235-.075.438-.157.608-.248.176-.09.328-.173.456-.248a.786.786 0 01.384-.112c.166 0 .288.061.368.184l.568.72a3.382 3.382 0 01-.736.648c-.272.17-.557.31-.856.416a4.756 4.756 0 01-.904.216c-.304.043-.6.064-.888.064a4.44 4.44 0 01-1.592-.28 3.634 3.634 0 01-1.28-.84 3.99 3.99 0 01-.856-1.376c-.208-.55-.312-1.184-.312-1.904 0-.56.091-1.085.272-1.576a3.78 3.78 0 01.776-1.288 3.696 3.696 0 011.24-.872 4.12 4.12 0 011.656-.32c.518 0 .995.083 1.432.248.438.165.814.408 1.128.728.315.315.56.704.736 1.168.182.459.272.984.272 1.576 0 .299-.032.501-.096.608-.064.101-.186.152-.368.152h-5.08zm9.685 3.984c-.715 0-1.264-.2-1.648-.6-.379-.405-.568-.963-.568-1.672V5.772h-.84a.385.385 0 01-.272-.104c-.075-.07-.112-.173-.112-.312v-.784l1.32-.216.416-2.24a.44.44 0 01.152-.248.452.452 0 01.288-.088H83.8v2.584h2.192v1.408H83.8v4.448c0 .256.062.456.184.6a.66.66 0 00.52.216.975.975 0 00.304-.04c.085-.032.157-.064.216-.096.064-.032.12-.061.168-.088a.258.258 0 01.144-.048c.059 0 .107.016.144.048a.58.58 0 01.12.128l.592.96a2.99 2.99 0 01-.992.544c-.373.123-.76.184-1.16.184z" fill="#333"/><path d="M32.65 8.14V4.356c0-.357.023-.752.071-1.184L29.13 8.14h3.52zm3.175 0v1.144c0 .107-.035.2-.104.28-.07.075-.168.112-.296.112H34.37V12.5h-1.72V9.676h-4.88a.552.552 0 01-.352-.12.554.554 0 01-.192-.312l-.208-1 5.48-7.32h1.872V8.14h1.456z" fill="#EA5DBB"/></svg>