<svg width="87" height="13" viewBox="0 0 87 13" fill="none" xmlns="http://www.w3.org/2000/svg">
<path d="M5.984 5.892C5.93067 5.97733 5.87467 6.03867 5.816 6.076C5.75733 6.108 5.68267 6.124 5.592 6.124C5.496 6.124 5.392 6.09733 5.28 6.044C5.17333 5.99067 5.048 5.932 4.904 5.868C4.76 5.79867 4.59467 5.73733 4.408 5.684C4.22667 5.63067 4.01067 5.604 3.76 5.604C3.37067 5.604 3.064 5.68667 2.84 5.852C2.62133 6.01733 2.512 6.23333 2.512 6.5C2.512 6.676 2.568 6.82533 2.68 6.948C2.79733 7.06533 2.94933 7.16933 3.136 7.26C3.328 7.35067 3.544 7.43333 3.784 7.508C4.024 7.57733 4.26667 7.65467 4.512 7.74C4.76267 7.82533 5.008 7.924 5.248 8.036C5.488 8.14267 5.70133 8.28133 5.888 8.452C6.08 8.61733 6.232 8.81733 6.344 9.052C6.46133 9.28667 6.52 9.56933 6.52 9.9C6.52 10.2947 6.448 10.66 6.304 10.996C6.16533 11.3267 5.95733 11.6147 5.68 11.86C5.40267 12.1 5.05867 12.2893 4.648 12.428C4.24267 12.5613 3.77333 12.628 3.24 12.628C2.95733 12.628 2.68 12.6013 2.408 12.548C2.14133 12.5 1.88267 12.4307 1.632 12.34C1.38667 12.2493 1.15733 12.1427 0.944 12.02C0.736 11.8973 0.552 11.764 0.392 11.62L0.848 10.868C0.906667 10.7773 0.976 10.708 1.056 10.66C1.136 10.612 1.23733 10.588 1.36 10.588C1.48267 10.588 1.59733 10.6227 1.704 10.692C1.816 10.7613 1.944 10.836 2.088 10.916C2.232 10.996 2.4 11.0707 2.592 11.14C2.78933 11.2093 3.03733 11.244 3.336 11.244C3.57067 11.244 3.77067 11.2173 3.936 11.164C4.10667 11.1053 4.24533 11.0307 4.352 10.94C4.464 10.8493 4.544 10.7453 4.592 10.628C4.64533 10.5053 4.672 10.38 4.672 10.252C4.672 10.06 4.61333 9.90267 4.496 9.78C4.384 9.65733 4.232 9.55067 4.04 9.46C3.85333 9.36933 3.63733 9.28933 3.392 9.22C3.152 9.14533 2.904 9.06533 2.648 8.98C2.39733 8.89467 2.14933 8.796 1.904 8.684C1.664 8.56667 1.448 8.42 1.256 8.244C1.06933 8.068 0.917333 7.852 0.8 7.596C0.688 7.34 0.632 7.03067 0.632 6.668C0.632 6.332 0.698667 6.012 0.832 5.708C0.965333 5.404 1.16 5.14 1.416 4.916C1.67733 4.68667 2 4.50533 2.384 4.372C2.77333 4.23333 3.22133 4.164 3.728 4.164C4.29333 4.164 4.808 4.25733 5.272 4.444C5.736 4.63067 6.12267 4.876 6.432 5.18L5.984 5.892ZM10.7433 12.628C10.0286 12.628 9.47925 12.428 9.09525 12.028C8.71658 11.6227 8.52725 11.0653 8.52725 10.356V5.772H7.68725C7.58058 5.772 7.48992 5.73733 7.41525 5.668C7.34058 5.59867 7.30325 5.49467 7.30325 5.356V4.572L8.62325 4.356L9.03925 2.116C9.06592 2.00933 9.11658 1.92667 9.19125 1.868C9.26592 1.80933 9.36192 1.78 9.47925 1.78H10.5033V4.364H12.6953V5.772H10.5033V10.22C10.5033 10.476 10.5646 10.676 10.6873 10.82C10.8153 10.964 10.9886 11.036 11.2073 11.036C11.3299 11.036 11.4313 11.0227 11.5113 10.996C11.5966 10.964 11.6686 10.932 11.7273 10.9C11.7913 10.868 11.8473 10.8387 11.8953 10.812C11.9433 10.78 11.9913 10.764 12.0393 10.764C12.0979 10.764 12.1459 10.78 12.1833 10.812C12.2206 10.8387 12.2606 10.8813 12.3033 10.94L12.8953 11.9C12.6073 12.14 12.2766 12.3213 11.9033 12.444C11.5299 12.5667 11.1433 12.628 10.7433 12.628ZM18.2964 8.996C17.7257 9.02267 17.2457 9.07333 16.8564 9.148C16.467 9.21733 16.155 9.308 15.9204 9.42C15.6857 9.532 15.5177 9.66267 15.4164 9.812C15.315 9.96133 15.2644 10.124 15.2644 10.3C15.2644 10.6467 15.3657 10.8947 15.5684 11.044C15.7764 11.1933 16.0457 11.268 16.3764 11.268C16.7817 11.268 17.131 11.196 17.4244 11.052C17.723 10.9027 18.0137 10.6787 18.2964 10.38V8.996ZM13.7684 5.436C14.7124 4.572 15.8484 4.14 17.1764 4.14C17.6564 4.14 18.0857 4.22 18.4644 4.38C18.843 4.53467 19.163 4.75333 19.4244 5.036C19.6857 5.31333 19.883 5.64667 20.0164 6.036C20.155 6.42533 20.2244 6.852 20.2244 7.316V12.5H19.3284C19.1417 12.5 18.9977 12.4733 18.8964 12.42C18.795 12.3613 18.715 12.2467 18.6564 12.076L18.4804 11.484C18.2724 11.6707 18.0697 11.836 17.8724 11.98C17.675 12.1187 17.4697 12.236 17.2564 12.332C17.043 12.428 16.8137 12.5 16.5684 12.548C16.3284 12.6013 16.0617 12.628 15.7684 12.628C15.4217 12.628 15.1017 12.5827 14.8084 12.492C14.515 12.396 14.2617 12.2547 14.0484 12.068C13.835 11.8813 13.6697 11.6493 13.5524 11.372C13.435 11.0947 13.3764 10.772 13.3764 10.404C13.3764 10.196 13.411 9.99067 13.4804 9.788C13.5497 9.58 13.6617 9.38267 13.8164 9.196C13.9764 9.00933 14.1817 8.83333 14.4324 8.668C14.683 8.50267 14.9897 8.35867 15.3524 8.236C15.7204 8.11333 16.147 8.01467 16.6324 7.94C17.1177 7.86 17.6724 7.812 18.2964 7.796V7.316C18.2964 6.76667 18.179 6.36133 17.9444 6.1C17.7097 5.83333 17.371 5.7 16.9284 5.7C16.6084 5.7 16.3417 5.73733 16.1284 5.812C15.9204 5.88667 15.7364 5.972 15.5764 6.068C15.4164 6.15867 15.2697 6.24133 15.1364 6.316C15.0084 6.39067 14.8644 6.428 14.7044 6.428C14.5657 6.428 14.4484 6.39333 14.3524 6.324C14.2564 6.24933 14.179 6.164 14.1204 6.068L13.7684 5.436ZM24.712 12.628C23.9973 12.628 23.448 12.428 23.064 12.028C22.6853 11.6227 22.496 11.0653 22.496 10.356V5.772H21.656C21.5493 5.772 21.4587 5.73733 21.384 5.668C21.3093 5.59867 21.272 5.49467 21.272 5.356V4.572L22.592 4.356L23.008 2.116C23.0347 2.00933 23.0853 1.92667 23.16 1.868C23.2347 1.80933 23.3307 1.78 23.448 1.78H24.472V4.364H26.664V5.772H24.472V10.22C24.472 10.476 24.5333 10.676 24.656 10.82C24.784 10.964 24.9573 11.036 25.176 11.036C25.2987 11.036 25.4 11.0227 25.48 10.996C25.5653 10.964 25.6373 10.932 25.696 10.9C25.76 10.868 25.816 10.8387 25.864 10.812C25.912 10.78 25.96 10.764 26.008 10.764C26.0667 10.764 26.1147 10.78 26.152 10.812C26.1893 10.8387 26.2293 10.8813 26.272 10.94L26.864 11.9C26.576 12.14 26.2453 12.3213 25.872 12.444C25.4987 12.5667 25.112 12.628 24.712 12.628ZM37.2104 12.5V4.292H38.4184C38.6744 4.292 38.8424 4.412 38.9224 4.652L39.0504 5.26C39.1944 5.1 39.3437 4.95333 39.4984 4.82C39.6584 4.68667 39.8264 4.572 40.0024 4.476C40.1837 4.38 40.3757 4.30533 40.5784 4.252C40.7864 4.19333 41.013 4.164 41.2584 4.164C41.7757 4.164 42.1997 4.30533 42.5304 4.588C42.8664 4.86533 43.117 5.236 43.2824 5.7C43.4104 5.428 43.5704 5.196 43.7624 5.004C43.9544 4.80667 44.165 4.64667 44.3944 4.524C44.6237 4.40133 44.8664 4.31067 45.1224 4.252C45.3837 4.19333 45.645 4.164 45.9064 4.164C46.3597 4.164 46.7624 4.23333 47.1144 4.372C47.4664 4.51067 47.7624 4.71333 48.0024 4.98C48.2424 5.24667 48.4237 5.572 48.5464 5.956C48.6744 6.34 48.7384 6.78 48.7384 7.276V12.5H46.7624V7.276C46.7624 6.75333 46.6477 6.36133 46.4184 6.1C46.189 5.83333 45.853 5.7 45.4104 5.7C45.2077 5.7 45.0184 5.73467 44.8424 5.804C44.6717 5.87333 44.5197 5.97467 44.3864 6.108C44.2584 6.236 44.157 6.39867 44.0824 6.596C44.0077 6.79333 43.9704 7.02 43.9704 7.276V12.5H41.9864V7.276C41.9864 6.72667 41.8744 6.32667 41.6504 6.076C41.4317 5.82533 41.109 5.7 40.6824 5.7C40.3944 5.7 40.125 5.772 39.8744 5.916C39.629 6.05467 39.3997 6.24667 39.1864 6.492V12.5H37.2104ZM54.9526 8.996C54.382 9.02267 53.902 9.07333 53.5126 9.148C53.1233 9.21733 52.8113 9.308 52.5766 9.42C52.342 9.532 52.174 9.66267 52.0726 9.812C51.9713 9.96133 51.9206 10.124 51.9206 10.3C51.9206 10.6467 52.022 10.8947 52.2246 11.044C52.4326 11.1933 52.702 11.268 53.0326 11.268C53.438 11.268 53.7873 11.196 54.0806 11.052C54.3793 10.9027 54.67 10.6787 54.9526 10.38V8.996ZM50.4246 5.436C51.3686 4.572 52.5046 4.14 53.8326 4.14C54.3126 4.14 54.742 4.22 55.1206 4.38C55.4993 4.53467 55.8193 4.75333 56.0806 5.036C56.342 5.31333 56.5393 5.64667 56.6726 6.036C56.8113 6.42533 56.8806 6.852 56.8806 7.316V12.5H55.9846C55.798 12.5 55.654 12.4733 55.5526 12.42C55.4513 12.3613 55.3713 12.2467 55.3126 12.076L55.1366 11.484C54.9286 11.6707 54.726 11.836 54.5286 11.98C54.3313 12.1187 54.126 12.236 53.9126 12.332C53.6993 12.428 53.47 12.5 53.2246 12.548C52.9846 12.6013 52.718 12.628 52.4246 12.628C52.078 12.628 51.758 12.5827 51.4646 12.492C51.1713 12.396 50.918 12.2547 50.7046 12.068C50.4913 11.8813 50.326 11.6493 50.2086 11.372C50.0913 11.0947 50.0326 10.772 50.0326 10.404C50.0326 10.196 50.0673 9.99067 50.1366 9.788C50.206 9.58 50.318 9.38267 50.4726 9.196C50.6326 9.00933 50.838 8.83333 51.0886 8.668C51.3393 8.50267 51.646 8.35867 52.0086 8.236C52.3766 8.11333 52.8033 8.01467 53.2886 7.94C53.774 7.86 54.3286 7.812 54.9526 7.796V7.316C54.9526 6.76667 54.8353 6.36133 54.6006 6.1C54.366 5.83333 54.0273 5.7 53.5846 5.7C53.2646 5.7 52.998 5.73733 52.7846 5.812C52.5766 5.88667 52.3926 5.972 52.2326 6.068C52.0726 6.15867 51.926 6.24133 51.7926 6.316C51.6646 6.39067 51.5206 6.428 51.3606 6.428C51.222 6.428 51.1046 6.39333 51.0086 6.324C50.9126 6.24933 50.8353 6.164 50.7766 6.068L50.4246 5.436ZM60.6056 5.716C60.8616 5.22533 61.1656 4.84133 61.5176 4.564C61.8696 4.28133 62.2856 4.14 62.7656 4.14C63.1443 4.14 63.4483 4.22267 63.6776 4.388L63.5496 5.868C63.523 5.964 63.483 6.03333 63.4296 6.076C63.3816 6.11333 63.315 6.132 63.2296 6.132C63.1496 6.132 63.0296 6.11867 62.8696 6.092C62.715 6.06533 62.563 6.052 62.4136 6.052C62.195 6.052 62.0003 6.084 61.8296 6.148C61.659 6.212 61.5043 6.30533 61.3656 6.428C61.2323 6.54533 61.1123 6.68933 61.0056 6.86C60.9043 7.03067 60.8083 7.22533 60.7176 7.444V12.5H58.7416V4.292H59.9016C60.1043 4.292 60.2456 4.32933 60.3256 4.404C60.4056 4.47333 60.459 4.60133 60.4856 4.788L60.6056 5.716ZM66.6864 0.612V7.42H67.0544C67.1877 7.42 67.2917 7.404 67.3664 7.372C67.4464 7.33467 67.5264 7.26267 67.6064 7.156L69.6464 4.636C69.7317 4.524 69.825 4.43867 69.9264 4.38C70.033 4.32133 70.169 4.292 70.3344 4.292H72.1424L69.5904 7.34C69.409 7.58 69.2117 7.764 68.9984 7.892C69.1104 7.972 69.209 8.06533 69.2944 8.172C69.385 8.27867 69.4704 8.39333 69.5504 8.516L72.2864 12.5H70.5024C70.3477 12.5 70.2144 12.476 70.1024 12.428C69.9904 12.3747 69.897 12.2813 69.8224 12.148L67.7264 9.036C67.6517 8.91333 67.5744 8.83333 67.4944 8.796C67.4144 8.75867 67.2944 8.74 67.1344 8.74H66.6864V12.5H64.7104V0.612H66.6864ZM78.1234 7.452C78.1234 7.196 78.086 6.956 78.0114 6.732C77.942 6.50267 77.8354 6.30267 77.6914 6.132C77.5474 5.96133 77.3634 5.828 77.1394 5.732C76.9207 5.63067 76.6647 5.58 76.3714 5.58C75.8007 5.58 75.35 5.74267 75.0194 6.068C74.694 6.39333 74.486 6.85467 74.3954 7.452H78.1234ZM74.3554 8.644C74.3874 9.06533 74.462 9.43067 74.5794 9.74C74.6967 10.044 74.8514 10.2973 75.0434 10.5C75.2354 10.6973 75.462 10.8467 75.7234 10.948C75.99 11.044 76.2834 11.092 76.6034 11.092C76.9234 11.092 77.198 11.0547 77.4274 10.98C77.662 10.9053 77.8647 10.8227 78.0354 10.732C78.2114 10.6413 78.3634 10.5587 78.4914 10.484C78.6247 10.4093 78.7527 10.372 78.8754 10.372C79.0407 10.372 79.1634 10.4333 79.2434 10.556L79.8114 11.276C79.5927 11.532 79.3474 11.748 79.0754 11.924C78.8034 12.0947 78.518 12.2333 78.2194 12.34C77.926 12.4413 77.6247 12.5133 77.3154 12.556C77.0114 12.5987 76.7154 12.62 76.4274 12.62C75.8567 12.62 75.326 12.5267 74.8354 12.34C74.3447 12.148 73.918 11.868 73.5554 11.5C73.1927 11.1267 72.9074 10.668 72.6994 10.124C72.4914 9.57467 72.3874 8.94 72.3874 8.22C72.3874 7.66 72.478 7.13467 72.6594 6.644C72.8407 6.148 73.0994 5.71867 73.4354 5.356C73.7767 4.988 74.19 4.69733 74.6754 4.484C75.166 4.27067 75.718 4.164 76.3314 4.164C76.8487 4.164 77.326 4.24667 77.7634 4.412C78.2007 4.57733 78.5767 4.82 78.8914 5.14C79.206 5.45467 79.4514 5.844 79.6274 6.308C79.8087 6.76667 79.8994 7.292 79.8994 7.884C79.8994 8.18267 79.8674 8.38533 79.8034 8.492C79.7394 8.59333 79.6167 8.644 79.4354 8.644H74.3554ZM84.0401 12.628C83.3255 12.628 82.7761 12.428 82.3921 12.028C82.0135 11.6227 81.8241 11.0653 81.8241 10.356V5.772H80.9841C80.8775 5.772 80.7868 5.73733 80.7121 5.668C80.6375 5.59867 80.6001 5.49467 80.6001 5.356V4.572L81.9201 4.356L82.3361 2.116C82.3628 2.00933 82.4135 1.92667 82.4881 1.868C82.5628 1.80933 82.6588 1.78 82.7761 1.78H83.8001V4.364H85.9921V5.772H83.8001V10.22C83.8001 10.476 83.8615 10.676 83.9841 10.82C84.1121 10.964 84.2855 11.036 84.5041 11.036C84.6268 11.036 84.7281 11.0227 84.8081 10.996C84.8935 10.964 84.9655 10.932 85.0241 10.9C85.0881 10.868 85.1441 10.8387 85.1921 10.812C85.2401 10.78 85.2881 10.764 85.3361 10.764C85.3948 10.764 85.4428 10.78 85.4801 10.812C85.5175 10.8387 85.5575 10.8813 85.6001 10.94L86.1921 11.9C85.9041 12.14 85.5735 12.3213 85.2001 12.444C84.8268 12.5667 84.4401 12.628 84.0401 12.628Z" fill="#333333"/>
<path d="M32.6491 8.14V4.356C32.6491 3.99867 32.6731 3.604 32.7211 3.172L29.1291 8.14H32.6491ZM35.8251 8.14V9.284C35.8251 9.39067 35.7905 9.484 35.7211 9.564C35.6518 9.63867 35.5531 9.676 35.4251 9.676H34.3691V12.5H32.6491V9.676H27.7691C27.6358 9.676 27.5185 9.636 27.4171 9.556C27.3158 9.47067 27.2518 9.36667 27.2251 9.244L27.0171 8.244L32.4971 0.924H34.3691V8.14H35.8251Z" fill="#EA5DBB"/>
</svg>
